PS_ngait_og_ss8_kinetics.mot
version=1
nRows=24
nColumns=28
inDegrees=yes
endheader
time	1_ground_force_vx	1_ground_force_vy	1_ground_force_vz	1_ground_force_px	1_ground_force_py	1_ground_force_pz	2_ground_force_vx	2_ground_force_vy	2_ground_force_vz	2_ground_force_px	2_ground_force_py	2_ground_force_pz	3_ground_force_vx	3_ground_force_vy	3_ground_force_vz	3_ground_force_px	3_ground_force_py	3_ground_force_pz	1_ground_torque_x	1_ground_torque_y	1_ground_torque_z	2_ground_torque_x	2_ground_torque_y	2_ground_torque_z	3_ground_torque_x	3_ground_torque_y	3_ground_torque_z
  0.80583333	  0.00000000	  0.00000000	  0.00000000	  0.30000000	 -0.00600000	  0.20000000	  0.00000000	  0.00000000	  0.00000000	 -0.30000000	 -0.00600000	  0.20000000	-31.56294134	714.42215700	-49.60229413	  0.83968078	 -0.00600000	  0.21204548	  0.00000000	  0.00000000	  0.00000000	  0.00000000	  0.00000000	  0.00000000	  0.00000000	 -2.61163937	  0.00000000
  0.80666667	  0.00000000	  0.00000000	  0.00000000	  0.30000000	 -0.00600000	  0.20000000	  0.00000000	  0.00000000	  0.00000000	 -0.30000000	 -0.00600000	  0.20000000	-31.05739103	713.32580270	-49.50013251	  0.83986230	 -0.00600000	  0.21204914	  0.00000000	  0.00000000	  0.00000000	  0.00000000	  0.00000000	  0.00000000	  0.00000000	 -2.61302420	  0.00000000
  0.80750000	  0.00000000	  0.00000000	  0.00000000	  0.30000000	 -0.00600000	  0.20000000	  0.00000000	  0.00000000	  0.00000000	 -0.30000000	 -0.00600000	  0.20000000	-30.56586706	712.25329068	-49.39266437	  0.84005462	 -0.00600000	  0.21205353	  0.00000000	  0.00000000	  0.00000000	  0.00000000	  0.00000000	  0.00000000	  0.00000000	 -2.61589006	  0.00000000
  0.80833333	  0.00000000	  0.00000000	  0.00000000	  0.30000000	 -0.00600000	  0.20000000	  0.00000000	  0.00000000	  0.00000000	 -0.30000000	 -0.00600000	  0.20000000	-30.08816415	711.20143129	-49.27907566	  0.84025498	 -0.00600000	  0.21205756	  0.00000000	  0.00000000	  0.00000000	  0.00000000	  0.00000000	  0.00000000	  0.00000000	 -2.62057369	  0.00000000
  0.80916667	  0.00000000	  0.00000000	  0.00000000	  0.30000000	 -0.00600000	  0.20000000	  0.00000000	  0.00000000	  0.00000000	 -0.30000000	 -0.00600000	  0.20000000	-29.62430017	710.16854416	-49.16035968	  0.84046034	 -0.00600000	  0.21206027	  0.00000000	  0.00000000	  0.00000000	  0.00000000	  0.00000000	  0.00000000	  0.00000000	 -2.62687184	  0.00000000
  0.81000000	  0.00000000	  0.00000000	  0.00000000	  0.30000000	 -0.00600000	  0.20000000	  0.00000000	  0.00000000	  0.00000000	 -0.30000000	 -0.00600000	  0.20000000	-29.17445642	709.15340722	-49.03937523	  0.84066851	 -0.00600000	  0.21206146	  0.00000000	  0.00000000	  0.00000000	  0.00000000	  0.00000000	  0.00000000	  0.00000000	 -2.63439511	  0.00000000
  0.81083333	  0.00000000	  0.00000000	  0.00000000	  0.30000000	 -0.00600000	  0.20000000	  0.00000000	  0.00000000	  0.00000000	 -0.30000000	 -0.00600000	  0.20000000	-28.73868466	708.15376755	-48.91960532	  0.84087912	 -0.00600000	  0.21206205	  0.00000000	  0.00000000	  0.00000000	  0.00000000	  0.00000000	  0.00000000	  0.00000000	 -2.64283767	  0.00000000
  0.81166667	  0.00000000	  0.00000000	  0.00000000	  0.30000000	 -0.00600000	  0.20000000	  0.00000000	  0.00000000	  0.00000000	 -0.30000000	 -0.00600000	  0.20000000	-28.31638087	707.16617137	-48.80423494	  0.84109362	 -0.00600000	  0.21206329	  0.00000000	  0.00000000	  0.00000000	  0.00000000	  0.00000000	  0.00000000	  0.00000000	 -2.65199586	  0.00000000
  0.81250000	  0.00000000	  0.00000000	  0.00000000	  0.30000000	 -0.00600000	  0.20000000	  0.00000000	  0.00000000	  0.00000000	 -0.30000000	 -0.00600000	  0.20000000	-27.90571388	706.18662066	-48.69591322	  0.84131331	 -0.00600000	  0.21206588	  0.00000000	  0.00000000	  0.00000000	  0.00000000	  0.00000000	  0.00000000	  0.00000000	 -2.66168986	  0.00000000
  0.81333333	  0.00000000	  0.00000000	  0.00000000	  0.30000000	 -0.00600000	  0.20000000	  0.00000000	  0.00000000	  0.00000000	 -0.30000000	 -0.00600000	  0.20000000	-27.50307443	705.21156631	-48.59662706	  0.84153787	 -0.00600000	  0.21206995	  0.00000000	  0.00000000	  0.00000000	  0.00000000	  0.00000000	  0.00000000	  0.00000000	 -2.67167529	  0.00000000
  0.81416667	  0.00000000	  0.00000000	  0.00000000	  0.30000000	 -0.00600000	  0.20000000	  0.00000000	  0.00000000	  0.00000000	 -0.30000000	 -0.00600000	  0.20000000	-27.10348946	704.23949949	-48.50780287	  0.84176603	 -0.00600000	  0.21207556	  0.00000000	  0.00000000	  0.00000000	  0.00000000	  0.00000000	  0.00000000	  0.00000000	 -2.68166927	  0.00000000
  0.81500000	  0.00000000	  0.00000000	  0.00000000	  0.30000000	 -0.00600000	  0.20000000	  0.00000000	  0.00000000	  0.00000000	 -0.30000000	 -0.00600000	  0.20000000	-26.70257552	703.27252494	-48.43050464	  0.84199656	 -0.00600000	  0.21208316	  0.00000000	  0.00000000	  0.00000000	  0.00000000	  0.00000000	  0.00000000	  0.00000000	 -2.69159896	  0.00000000
  0.81583333	  0.00000000	  0.00000000	  0.00000000	  0.30000000	 -0.00600000	  0.20000000	  0.00000000	  0.00000000	  0.00000000	 -0.30000000	 -0.00600000	  0.20000000	-26.29823114	702.31641777	-48.36522319	  0.84222863	 -0.00600000	  0.21209360	  0.00000000	  0.00000000	  0.00000000	  0.00000000	  0.00000000	  0.00000000	  0.00000000	 -2.70175457	  0.00000000
  0.81666667	  0.00000000	  0.00000000	  0.00000000	  0.30000000	 -0.00600000	  0.20000000	  0.00000000	  0.00000000	  0.00000000	 -0.30000000	 -0.00600000	  0.20000000	-25.89057897	701.37903187	-48.31156600	  0.84246152	 -0.00600000	  0.21210765	  0.00000000	  0.00000000	  0.00000000	  0.00000000	  0.00000000	  0.00000000	  0.00000000	 -2.71246696	  0.00000000
  0.81750000	  0.00000000	  0.00000000	  0.00000000	  0.30000000	 -0.00600000	  0.20000000	  0.00000000	  0.00000000	  0.00000000	 -0.30000000	 -0.00600000	  0.20000000	-25.48104008	700.46879429	-48.26822174	  0.84269416	 -0.00600000	  0.21212494	  0.00000000	  0.00000000	  0.00000000	  0.00000000	  0.00000000	  0.00000000	  0.00000000	 -2.72374334	  0.00000000
  0.81833333	  0.00000000	  0.00000000	  0.00000000	  0.30000000	 -0.00600000	  0.20000000	  0.00000000	  0.00000000	  0.00000000	 -0.30000000	 -0.00600000	  0.20000000	-25.07160457	699.59363757	-48.23295072	  0.84292539	 -0.00600000	  0.21214379	  0.00000000	  0.00000000	  0.00000000	  0.00000000	  0.00000000	  0.00000000	  0.00000000	 -2.73540751	  0.00000000
  0.81916667	  0.00000000	  0.00000000	  0.00000000	  0.30000000	 -0.00600000	  0.20000000	  0.00000000	  0.00000000	  0.00000000	 -0.30000000	 -0.00600000	  0.20000000	-24.66448265	698.75846816	-48.20241802	  0.84315442	 -0.00600000	  0.21216194	  0.00000000	  0.00000000	  0.00000000	  0.00000000	  0.00000000	  0.00000000	  0.00000000	 -2.74747649	  0.00000000
  0.82000000	  0.00000000	  0.00000000	  0.00000000	  0.30000000	 -0.00600000	  0.20000000	  0.00000000	  0.00000000	  0.00000000	 -0.30000000	 -0.00600000	  0.20000000	-24.26206764	697.96214976	-48.17200193	  0.84338088	 -0.00600000	  0.21217735	  0.00000000	  0.00000000	  0.00000000	  0.00000000	  0.00000000	  0.00000000	  0.00000000	 -2.76030511	  0.00000000
  0.82083333	  0.00000000	  0.00000000	  0.00000000	  0.30000000	 -0.00600000	  0.20000000	  0.00000000	  0.00000000	  0.00000000	 -0.30000000	 -0.00600000	  0.20000000	-23.86682854	697.19786693	-48.13640184	  0.84360470	 -0.00600000	  0.21218845	  0.00000000	  0.00000000	  0.00000000	  0.00000000	  0.00000000	  0.00000000	  0.00000000	 -2.77432775	  0.00000000
  0.82166667	  0.00000000	  0.00000000	  0.00000000	  0.30000000	 -0.00600000	  0.20000000	  0.00000000	  0.00000000	  0.00000000	 -0.30000000	 -0.00600000	  0.20000000	-23.48093692	696.45662239	-48.09187266	  0.84382611	 -0.00600000	  0.21219418	  0.00000000	  0.00000000	  0.00000000	  0.00000000	  0.00000000	  0.00000000	  0.00000000	 -2.78958150	  0.00000000
  0.82250000	  0.00000000	  0.00000000	  0.00000000	  0.30000000	 -0.00600000	  0.20000000	  0.00000000	  0.00000000	  0.00000000	 -0.30000000	 -0.00600000	  0.20000000	-23.10618347	695.73013245	-48.03866125	  0.84404583	 -0.00600000	  0.21219386	  0.00000000	  0.00000000	  0.00000000	  0.00000000	  0.00000000	  0.00000000	  0.00000000	 -2.80549795	  0.00000000
  0.82333333	  0.00000000	  0.00000000	  0.00000000	  0.30000000	 -0.00600000	  0.20000000	  0.00000000	  0.00000000	  0.00000000	 -0.30000000	 -0.00600000	  0.20000000	-22.74436471	695.01189504	-47.98096441	  0.84426526	 -0.00600000	  0.21218743	  0.00000000	  0.00000000	  0.00000000	  0.00000000	  0.00000000	  0.00000000	  0.00000000	 -2.82110987	  0.00000000
  0.82416667	  0.00000000	  0.00000000	  0.00000000	  0.30000000	 -0.00600000	  0.20000000	  0.00000000	  0.00000000	  0.00000000	 -0.30000000	 -0.00600000	  0.20000000	-22.39757072	694.29770616	-47.92453271	  0.84448701	 -0.00600000	  0.21217576	  0.00000000	  0.00000000	  0.00000000	  0.00000000	  0.00000000	  0.00000000	  0.00000000	 -2.83532432	  0.00000000
  0.82500000	  0.00000000	  0.00000000	  0.00000000	  0.30000000	 -0.00600000	  0.20000000	  0.00000000	  0.00000000	  0.00000000	 -0.30000000	 -0.00600000	  0.20000000	-22.06805471	693.58614549	-47.87441160	  0.84471449	 -0.00600000	  0.21216078	  0.00000000	  0.00000000	  0.00000000	  0.00000000	  0.00000000	  0.00000000	  0.00000000	 -2.84705809	  0.00000000
